<?xml version="1.0" encoding="utf-8"?>
<!-- Generator: Adobe Illustrator 19.0.0, SVG Export Plug-In . SVG Version: 6.00 Build 0)  -->
<svg version="1.1" id="Capa_1" xmlns="http://www.w3.org/2000/svg" xmlns:xlink="http://www.w3.org/1999/xlink" x="0px" y="0px"
	 viewBox="-893 353 132 95" style="enable-background:new -893 353 132 95;" xml:space="preserve">
<style type="text/css">
	.st0{fill:#221F1F;}
	.st1{fill-rule:evenodd;clip-rule:evenodd;fill:#D92527;}
	.st2{fill-rule:evenodd;clip-rule:evenodd;fill:#FFFFFF;}
</style>
<g id="XMLID_2487_">
	<g id="XMLID_5581_">
		<path id="XMLID_5610_" class="st0" d="M-882.2,434.5l-0.1-1.1c-0.1,0.4-0.4,0.7-0.7,1c-0.3,0.2-0.7,0.3-1.1,0.3
			c-0.8,0-1.5-0.3-1.9-1c-0.4-0.7-0.6-1.8-0.6-3.3c0-1.5,0.2-2.5,0.6-3.2c0.4-0.7,1.1-1,2-1c0.7,0,1.3,0.2,1.6,0.7
			c0.4,0.4,0.6,1.1,0.6,1.8h-0.9c0-0.6-0.2-1-0.4-1.3s-0.6-0.5-1-0.5c-0.6,0-1,0.3-1.3,0.8c-0.3,0.6-0.4,1.5-0.4,2.9
			c0,1.1,0.1,1.9,0.4,2.4c0.3,0.5,0.7,0.8,1.3,0.8c0.5,0,0.9-0.2,1.2-0.6c0.3-0.4,0.4-1,0.4-1.8c0-0.1,0-0.2,0-0.2
			c0-0.1,0-0.1,0-0.1h-1.8v-0.8h2.6v4.2H-882.2z"/>
		<path id="XMLID_5607_" class="st0" d="M-876.5,434.5c-0.1,0-0.2,0-0.3,0c-0.1,0-0.1,0-0.2,0c-0.2,0-0.4-0.1-0.5-0.2
			c-0.1-0.2-0.2-0.4-0.2-0.6c-0.1,0.3-0.3,0.5-0.5,0.7c-0.2,0.2-0.5,0.2-0.8,0.2c-0.4,0-0.7-0.1-1-0.4c-0.2-0.3-0.4-0.7-0.4-1.2
			c0-0.5,0.1-0.9,0.3-1.2c0.2-0.3,0.7-0.5,1.4-0.8l0,0c0.6-0.2,0.9-0.4,0.9-0.7v-0.6c0-0.2-0.1-0.4-0.2-0.5
			c-0.1-0.1-0.4-0.2-0.7-0.2c-0.3,0-0.5,0.1-0.6,0.2c-0.1,0.2-0.2,0.4-0.2,0.7v0.1h-0.8c0-0.6,0.2-1.1,0.4-1.4
			c0.3-0.3,0.7-0.4,1.3-0.4c0.6,0,1,0.1,1.2,0.4c0.3,0.3,0.4,0.7,0.4,1.2v3.5c0,0.2,0,0.3,0.1,0.3c0.1,0.1,0.1,0.1,0.3,0.1
			c0,0,0.1,0,0.1,0c0,0,0,0,0,0L-876.5,434.5z M-877.8,431.2c-0.1,0.1-0.4,0.3-0.8,0.5c0,0-0.1,0-0.1,0c-0.4,0.1-0.6,0.3-0.7,0.5
			c-0.1,0.2-0.2,0.4-0.2,0.8c0,0.3,0.1,0.5,0.2,0.7c0.1,0.2,0.3,0.2,0.5,0.2c0.3,0,0.6-0.1,0.8-0.4c0.2-0.3,0.3-0.6,0.3-1.1V431.2z"
			/>
		<path id="XMLID_5605_" class="st0" d="M-875.6,434.5v-6.1h0.8v1c0.1-0.4,0.3-0.6,0.5-0.8c0.2-0.2,0.5-0.3,0.8-0.3
			c0.1,0,0.2,0,0.2,0c0,0,0.1,0,0.1,0v0.9c0,0-0.1,0-0.1-0.1c-0.1,0-0.1,0-0.2,0c-0.4,0-0.7,0.1-1,0.4c-0.2,0.3-0.3,0.7-0.3,1.2v3.7
			H-875.6z"/>
		<path id="XMLID_5602_" class="st0" d="M-868.9,434.5c-0.1,0-0.2,0-0.3,0c-0.1,0-0.1,0-0.2,0c-0.2,0-0.4-0.1-0.5-0.2
			c-0.1-0.2-0.2-0.4-0.2-0.6c-0.1,0.3-0.3,0.5-0.5,0.7c-0.2,0.2-0.5,0.2-0.8,0.2c-0.4,0-0.7-0.1-1-0.4c-0.2-0.3-0.4-0.7-0.4-1.2
			c0-0.5,0.1-0.9,0.3-1.2c0.2-0.3,0.7-0.5,1.4-0.8l0,0c0.6-0.2,0.9-0.4,0.9-0.7v-0.6c0-0.2-0.1-0.4-0.2-0.5
			c-0.1-0.1-0.4-0.2-0.7-0.2c-0.3,0-0.5,0.1-0.6,0.2c-0.1,0.2-0.2,0.4-0.2,0.7v0.1h-0.8c0-0.6,0.2-1.1,0.4-1.4
			c0.3-0.3,0.7-0.4,1.3-0.4c0.6,0,1,0.1,1.2,0.4c0.3,0.3,0.4,0.7,0.4,1.2v3.5c0,0.2,0,0.3,0.1,0.3c0.1,0.1,0.1,0.1,0.3,0.1
			c0,0,0.1,0,0.1,0c0,0,0,0,0,0L-868.9,434.5z M-870.1,431.2c-0.1,0.1-0.4,0.3-0.8,0.5c0,0-0.1,0-0.1,0c-0.4,0.1-0.6,0.3-0.7,0.5
			c-0.1,0.2-0.2,0.4-0.2,0.8c0,0.3,0.1,0.5,0.2,0.7c0.1,0.2,0.3,0.2,0.5,0.2c0.3,0,0.6-0.1,0.8-0.4c0.2-0.3,0.3-0.6,0.3-1.1V431.2z"
			/>
		<path id="XMLID_5600_" class="st0" d="M-868,434.5v-6.1h0.8v0.8c0.1-0.3,0.3-0.5,0.6-0.7c0.2-0.1,0.5-0.2,0.9-0.2
			c0.5,0,0.9,0.1,1.1,0.4c0.2,0.3,0.3,0.7,0.3,1.4v4.4h-0.8V430c0-0.3-0.1-0.6-0.2-0.7c-0.1-0.2-0.3-0.2-0.6-0.2
			c-0.4,0-0.7,0.1-0.9,0.4c-0.2,0.2-0.3,0.6-0.3,1v4.1H-868z"/>
		<path id="XMLID_5598_" class="st0" d="M-862.2,433.2c0,0.3,0,0.4,0.1,0.5c0.1,0.1,0.3,0.1,0.6,0.1c0,0,0.1,0,0.1,0
			c0,0,0.1,0,0.1,0l0,0.7c-0.1,0-0.1,0-0.2,0c-0.2,0-0.3,0-0.4,0c-0.4,0-0.7-0.1-0.9-0.2c-0.2-0.2-0.3-0.4-0.3-0.7v-4.5h-0.8v-0.7
			h0.8v-1.6h0.8v1.6h0.9v0.7h-0.9V433.2z"/>
		<path id="XMLID_5595_" class="st0" d="M-860.8,427.8l0.9-1.4h0.9l-1.2,1.4H-860.8z M-860.6,434.5v-6.1h0.8v6.1H-860.6z"/>
		<path id="XMLID_5592_" class="st0" d="M-854.8,434.5c-0.1,0-0.2,0-0.3,0c-0.1,0-0.1,0-0.2,0c-0.2,0-0.4-0.1-0.5-0.2
			c-0.1-0.2-0.2-0.4-0.2-0.6c-0.1,0.3-0.3,0.5-0.5,0.7c-0.2,0.2-0.5,0.2-0.8,0.2c-0.4,0-0.7-0.1-1-0.4c-0.2-0.3-0.4-0.7-0.4-1.2
			c0-0.5,0.1-0.9,0.3-1.2c0.2-0.3,0.7-0.5,1.4-0.8l0,0c0.6-0.2,0.9-0.4,0.9-0.7v-0.6c0-0.2-0.1-0.4-0.2-0.5
			c-0.1-0.1-0.4-0.2-0.7-0.2c-0.3,0-0.5,0.1-0.6,0.2c-0.1,0.2-0.2,0.4-0.2,0.7v0.1h-0.8c0-0.6,0.2-1.1,0.4-1.4
			c0.3-0.3,0.7-0.4,1.3-0.4c0.6,0,1,0.1,1.2,0.4c0.3,0.3,0.4,0.7,0.4,1.2v3.5c0,0.2,0,0.3,0.1,0.3c0.1,0.1,0.1,0.1,0.3,0.1
			c0,0,0.1,0,0.1,0c0,0,0,0,0,0L-854.8,434.5z M-856.1,431.2c-0.1,0.1-0.4,0.3-0.8,0.5c0,0-0.1,0-0.1,0c-0.4,0.1-0.6,0.3-0.7,0.5
			c-0.1,0.2-0.2,0.4-0.2,0.8c0,0.3,0.1,0.5,0.2,0.7c0.1,0.2,0.3,0.2,0.5,0.2c0.3,0,0.6-0.1,0.8-0.4c0.2-0.3,0.3-0.6,0.3-1.1V431.2z"
			/>
		<path id="XMLID_5589_" class="st0" d="M-847.7,434.5h-0.8v-0.8c-0.1,0.3-0.2,0.5-0.5,0.6s-0.5,0.2-0.8,0.2c-0.6,0-1.1-0.3-1.4-0.9
			c-0.3-0.6-0.5-1.4-0.5-2.5c0-0.9,0.2-1.7,0.5-2.2c0.3-0.5,0.8-0.8,1.3-0.8c0.3,0,0.6,0.1,0.8,0.2c0.2,0.1,0.4,0.3,0.4,0.6v-2.7
			h0.8V434.5z M-848.4,431.4c0-0.9-0.1-1.5-0.3-1.8c-0.2-0.3-0.5-0.5-0.9-0.5c-0.4,0-0.7,0.2-0.8,0.6c-0.2,0.4-0.3,1-0.3,1.7
			c0,0.9,0.1,1.5,0.3,1.9c0.2,0.4,0.4,0.6,0.8,0.6c0.4,0,0.7-0.2,0.9-0.6C-848.5,432.9-848.4,432.3-848.4,431.4z"/>
		<path id="XMLID_5586_" class="st0" d="M-843.8,432.4h0.8c0,0.7-0.2,1.3-0.5,1.6s-0.7,0.6-1.3,0.6c-0.6,0-1.1-0.3-1.4-0.8
			c-0.3-0.5-0.4-1.3-0.4-2.4c0-1.1,0.1-2,0.4-2.5c0.3-0.5,0.8-0.8,1.4-0.8c0.6,0,1.1,0.2,1.3,0.7c0.3,0.4,0.4,1.1,0.4,2
			c0,0.1,0,0.3,0,0.3c0,0.1,0,0.1,0,0.2l-2.8,0v0.3c0,0.8,0.1,1.3,0.3,1.7c0.2,0.3,0.4,0.5,0.8,0.5c0.3,0,0.5-0.1,0.7-0.4
			C-843.9,433.3-843.8,432.9-843.8,432.4L-843.8,432.4z M-845.8,430.8h2v-0.2c0-0.6-0.1-1-0.2-1.3c-0.2-0.3-0.4-0.4-0.7-0.4
			c-0.4,0-0.6,0.2-0.8,0.5C-845.7,429.7-845.8,430.1-845.8,430.8z"/>
		<path id="XMLID_5584_" class="st0" d="M-836.5,434.5v-0.8c-0.1,0.3-0.3,0.5-0.5,0.7c-0.3,0.2-0.6,0.2-0.9,0.2
			c-0.5,0-0.8-0.1-1.1-0.4c-0.2-0.2-0.3-0.6-0.3-1.2v-4.7h0.8v4.7c0,0.2,0.1,0.4,0.2,0.6s0.3,0.2,0.5,0.2c0.4,0,0.7-0.1,0.9-0.4
			s0.3-0.6,0.3-1.1v-4h0.8v6.1H-836.5z"/>
		<path id="XMLID_5582_" class="st0" d="M-834.4,434.5v-6.1h0.8v0.8c0.1-0.3,0.3-0.5,0.6-0.7c0.2-0.1,0.5-0.2,0.9-0.2
			c0.5,0,0.9,0.1,1.1,0.4c0.2,0.3,0.3,0.7,0.3,1.4v4.4h-0.8V430c0-0.3-0.1-0.6-0.2-0.7c-0.1-0.2-0.3-0.2-0.6-0.2
			c-0.4,0-0.7,0.1-0.9,0.4c-0.2,0.2-0.3,0.6-0.3,1v4.1H-834.4z"/>
	</g>
	<g id="XMLID_4436_">
		<path id="XMLID_5578_" class="st0" d="M-886.3,445.4v-8.1h2.2c0.9,0,1.5,0.3,1.9,0.9c0.4,0.6,0.6,1.6,0.6,2.9
			c0,0.9-0.1,1.7-0.2,2.3s-0.4,1.1-0.7,1.4c-0.2,0.2-0.4,0.4-0.7,0.5c-0.3,0.1-0.7,0.2-1.2,0.2H-886.3z M-885.4,444.6h1.1
			c0.4,0,0.6,0,0.8-0.1c0.2-0.1,0.4-0.2,0.5-0.4c0.2-0.3,0.3-0.6,0.4-1c0.1-0.4,0.1-1,0.1-1.7c0-1.3-0.1-2.2-0.4-2.6
			c-0.3-0.4-0.8-0.7-1.5-0.7h-1.1V444.6z"/>
		<path id="XMLID_5575_" class="st0" d="M-880.4,438.4v-1.1h0.8v1.1H-880.4z M-880.4,445.4v-6.1h0.8v6.1H-880.4z"/>
		<path id="XMLID_5572_" class="st0" d="M-874.5,445.4c-0.1,0-0.2,0-0.3,0c-0.1,0-0.1,0-0.2,0c-0.2,0-0.4-0.1-0.5-0.2
			c-0.1-0.2-0.2-0.4-0.2-0.6c-0.1,0.3-0.3,0.5-0.5,0.7c-0.2,0.2-0.5,0.2-0.8,0.2c-0.4,0-0.7-0.1-1-0.4c-0.2-0.3-0.4-0.7-0.4-1.2
			c0-0.5,0.1-0.9,0.3-1.2c0.2-0.3,0.7-0.5,1.4-0.8l0,0c0.6-0.2,0.9-0.4,0.9-0.7v-0.6c0-0.2-0.1-0.4-0.2-0.5
			c-0.1-0.1-0.4-0.2-0.7-0.2c-0.3,0-0.5,0.1-0.6,0.2c-0.1,0.2-0.2,0.4-0.2,0.7v0.1h-0.8c0-0.6,0.2-1.1,0.4-1.4
			c0.3-0.3,0.7-0.4,1.3-0.4c0.6,0,1,0.1,1.2,0.4c0.3,0.3,0.4,0.7,0.4,1.2v3.5c0,0.2,0,0.3,0.1,0.3c0.1,0.1,0.1,0.1,0.3,0.1
			c0,0,0.1,0,0.1,0c0,0,0,0,0,0L-874.5,445.4z M-875.8,442.1c-0.1,0.1-0.4,0.3-0.8,0.5c0,0-0.1,0-0.1,0c-0.4,0.1-0.6,0.3-0.7,0.5
			c-0.1,0.2-0.2,0.4-0.2,0.8c0,0.3,0.1,0.5,0.2,0.7c0.1,0.2,0.3,0.2,0.5,0.2c0.3,0,0.6-0.1,0.8-0.4c0.2-0.3,0.3-0.6,0.3-1.1V442.1z"
			/>
		<path id="XMLID_5569_" class="st0" d="M-873.7,445.9h0.8c0,0.2,0.1,0.4,0.3,0.6c0.2,0.1,0.4,0.2,0.7,0.2c0.4,0,0.7-0.1,0.9-0.4
			c0.2-0.3,0.3-0.7,0.3-1.3c0,0,0-0.1,0-0.1c0-0.1,0-0.1,0-0.2c-0.1,0.3-0.3,0.5-0.5,0.6c-0.2,0.1-0.5,0.2-0.8,0.2
			c-0.6,0-1-0.3-1.3-0.8c-0.3-0.5-0.4-1.4-0.4-2.5c0-1,0.2-1.7,0.5-2.2c0.3-0.5,0.8-0.7,1.4-0.7c0.3,0,0.6,0.1,0.8,0.2
			c0.2,0.1,0.4,0.4,0.5,0.6v-0.7h0.8v5.8c0,0.7-0.2,1.3-0.5,1.7c-0.3,0.4-0.8,0.6-1.5,0.6c-0.5,0-0.9-0.1-1.2-0.4
			C-873.5,446.7-873.7,446.4-873.7,445.9L-873.7,445.9z M-873,442.4c0,0.8,0.1,1.5,0.3,1.8c0.2,0.4,0.4,0.5,0.8,0.5
			c0.4,0,0.7-0.2,0.9-0.6c0.2-0.4,0.3-1,0.3-1.9c0-0.8-0.1-1.4-0.3-1.8s-0.5-0.6-0.9-0.6c-0.4,0-0.6,0.2-0.8,0.6
			C-872.9,440.9-873,441.5-873,442.4z"/>
		<path id="XMLID_5567_" class="st0" d="M-868.8,445.4v-6.1h0.8v0.8c0.1-0.3,0.3-0.5,0.6-0.7c0.2-0.1,0.5-0.2,0.9-0.2
			c0.5,0,0.9,0.1,1.1,0.4c0.2,0.3,0.3,0.7,0.3,1.4v4.4h-0.8v-4.5c0-0.3-0.1-0.6-0.2-0.7c-0.1-0.2-0.3-0.2-0.6-0.2
			c-0.4,0-0.7,0.1-0.9,0.4c-0.2,0.2-0.3,0.6-0.3,1v4.1H-868.8z"/>
		<path id="XMLID_5546_" class="st0" d="M-864.1,442.4c0-1.1,0.2-1.9,0.5-2.4c0.3-0.5,0.8-0.8,1.5-0.8c0.7,0,1.2,0.3,1.5,0.8
			c0.3,0.5,0.5,1.3,0.5,2.4c0,1.1-0.2,1.9-0.5,2.4c-0.3,0.5-0.8,0.8-1.6,0.8c-0.7,0-1.2-0.3-1.6-0.8
			C-863.9,444.3-864.1,443.5-864.1,442.4z M-863.2,442.4c0,0.9,0.1,1.5,0.3,1.9c0.2,0.4,0.5,0.6,0.9,0.6c0.4,0,0.7-0.2,0.9-0.6
			c0.2-0.4,0.3-1,0.3-1.9c0-0.9-0.1-1.5-0.3-1.9c-0.2-0.4-0.5-0.6-0.9-0.6c-0.4,0-0.7,0.2-0.9,0.5S-863.2,441.4-863.2,442.4z
			 M-862.6,438.7l0.9-1.4h0.9l-1.2,1.4H-862.6z"/>
		<path id="XMLID_5544_" class="st0" d="M-859.1,443.6h0.8c0,0,0,0,0,0c0,0.1,0,0.1,0,0.2c0,0.3,0.1,0.6,0.3,0.8
			c0.2,0.2,0.4,0.3,0.8,0.3c0.3,0,0.6-0.1,0.7-0.3c0.2-0.2,0.3-0.4,0.3-0.7c0-0.5-0.4-0.8-1.1-1.1c0,0,0,0,0,0
			c-0.7-0.3-1.2-0.5-1.4-0.8c-0.2-0.3-0.3-0.6-0.3-1.1c0-0.5,0.1-0.9,0.4-1.2s0.7-0.4,1.2-0.4c0.6,0,1,0.1,1.3,0.4
			c0.3,0.3,0.4,0.7,0.4,1.3v0.1h-0.8c0-0.4-0.1-0.6-0.2-0.8c-0.1-0.2-0.4-0.3-0.7-0.3c-0.3,0-0.6,0.1-0.7,0.2
			c-0.2,0.2-0.2,0.4-0.2,0.7c0,0.1,0,0.3,0.1,0.4c0,0.1,0.1,0.2,0.2,0.3c0.1,0.1,0.4,0.3,0.9,0.4c0.2,0.1,0.4,0.1,0.5,0.2
			c0.4,0.2,0.7,0.4,0.9,0.6c0.2,0.2,0.3,0.6,0.3,1c0,0.6-0.2,1.1-0.5,1.4c-0.3,0.3-0.8,0.5-1.4,0.5c-0.6,0-1-0.2-1.3-0.5
			c-0.3-0.3-0.4-0.8-0.4-1.4V443.6z"/>
		<path id="XMLID_5542_" class="st0" d="M-853.4,444.1c0,0.3,0,0.4,0.1,0.5c0.1,0.1,0.3,0.1,0.6,0.1c0,0,0.1,0,0.1,0
			c0,0,0.1,0,0.1,0l0,0.7c-0.1,0-0.1,0-0.2,0c-0.2,0-0.3,0-0.4,0c-0.4,0-0.7-0.1-0.9-0.2c-0.2-0.2-0.3-0.4-0.3-0.7V440h-0.8v-0.7
			h0.8v-1.6h0.8v1.6h0.9v0.7h-0.9V444.1z"/>
		<path id="XMLID_5538_" class="st0" d="M-851.8,438.4v-1.1h0.8v1.1H-851.8z M-851.8,445.4v-6.1h0.8v6.1H-851.8z"/>
		<path id="XMLID_5528_" class="st0" d="M-846.9,443.2h0.8c0,0.7-0.2,1.3-0.5,1.7c-0.3,0.4-0.8,0.6-1.4,0.6c-0.6,0-1.1-0.3-1.4-0.8
			c-0.3-0.5-0.5-1.3-0.5-2.4c0-1.1,0.2-1.8,0.5-2.4c0.3-0.5,0.8-0.8,1.5-0.8c0.5,0,1,0.2,1.3,0.5c0.3,0.3,0.5,0.8,0.5,1.4v0.1h-0.8
			c0-0.4-0.1-0.7-0.3-1c-0.2-0.2-0.4-0.3-0.7-0.3c-0.4,0-0.7,0.2-0.9,0.6c-0.2,0.4-0.3,1-0.3,1.9c0,0.9,0.1,1.5,0.3,1.9
			c0.2,0.4,0.5,0.6,0.9,0.6c0.3,0,0.5-0.1,0.7-0.4C-847,444.1-846.9,443.7-846.9,443.2z"/>
		<path id="XMLID_5510_" class="st0" d="M-845.1,442.4c0-1.1,0.2-1.9,0.5-2.4c0.3-0.5,0.8-0.8,1.5-0.8c0.7,0,1.2,0.3,1.5,0.8
			c0.3,0.5,0.5,1.3,0.5,2.4c0,1.1-0.2,1.9-0.5,2.4c-0.3,0.5-0.8,0.8-1.6,0.8c-0.7,0-1.2-0.3-1.6-0.8
			C-845,444.3-845.1,443.5-845.1,442.4z M-844.3,442.4c0,0.9,0.1,1.5,0.3,1.9c0.2,0.4,0.5,0.6,0.9,0.6c0.4,0,0.7-0.2,0.9-0.6
			c0.2-0.4,0.3-1,0.3-1.9c0-0.9-0.1-1.5-0.3-1.9c-0.2-0.4-0.5-0.6-0.9-0.6c-0.4,0-0.7,0.2-0.9,0.5S-844.3,441.4-844.3,442.4z"/>
		<path id="XMLID_5508_" class="st0" d="M-837.5,442.8h0.8v0.3c0,0.6,0.1,1,0.4,1.2s0.6,0.4,1.1,0.4c0.4,0,0.8-0.1,1-0.4
			c0.2-0.3,0.4-0.6,0.4-1.1c0-0.4-0.1-0.7-0.2-0.9c-0.1-0.2-0.5-0.4-1-0.6c-0.1,0-0.3-0.1-0.5-0.2c-0.6-0.2-1-0.4-1.1-0.5
			c-0.2-0.2-0.4-0.4-0.5-0.7c-0.1-0.3-0.2-0.6-0.2-1c0-0.7,0.2-1.3,0.6-1.7c0.4-0.4,0.9-0.6,1.6-0.6c0.6,0,1.1,0.2,1.5,0.6
			c0.4,0.4,0.5,0.9,0.5,1.5c0,0,0,0.1,0,0.1c0,0,0,0.1,0,0.1h-0.8v-0.1c0-0.5-0.1-0.8-0.3-1.1c-0.2-0.2-0.5-0.4-0.9-0.4
			c-0.4,0-0.7,0.1-1,0.4c-0.2,0.2-0.3,0.6-0.3,1c0,0.4,0.1,0.7,0.2,0.9c0.2,0.2,0.5,0.4,1,0.6c0.1,0,0.2,0.1,0.3,0.1
			c0.8,0.3,1.3,0.5,1.5,0.7c0.2,0.2,0.3,0.4,0.4,0.7c0.1,0.3,0.1,0.6,0.1,1c0,0.8-0.2,1.4-0.6,1.8c-0.4,0.4-1,0.6-1.7,0.6
			c-0.7,0-1.3-0.2-1.6-0.6c-0.4-0.4-0.6-1-0.6-1.9c0,0,0-0.1,0-0.1C-837.5,442.9-837.5,442.8-837.5,442.8z"/>
		<path id="XMLID_5501_" class="st0" d="M-829.2,443.3h0.8c0,0.7-0.2,1.3-0.5,1.6c-0.3,0.4-0.7,0.6-1.3,0.6c-0.6,0-1.1-0.3-1.4-0.8
			c-0.3-0.5-0.4-1.3-0.4-2.4c0-1.1,0.1-2,0.4-2.5c0.3-0.5,0.8-0.8,1.4-0.8c0.6,0,1.1,0.2,1.3,0.7c0.3,0.4,0.4,1.1,0.4,2
			c0,0.1,0,0.3,0,0.3c0,0.1,0,0.1,0,0.2l-2.8,0v0.3c0,0.8,0.1,1.3,0.3,1.7c0.2,0.3,0.4,0.5,0.8,0.5c0.3,0,0.5-0.1,0.7-0.4
			C-829.3,444.2-829.2,443.8-829.2,443.3L-829.2,443.3z M-831.2,441.7h2v-0.2c0-0.6-0.1-1-0.2-1.3c-0.2-0.3-0.4-0.4-0.7-0.4
			c-0.3,0-0.6,0.2-0.8,0.5C-831.1,440.6-831.2,441.1-831.2,441.7z"/>
		<path id="XMLID_5498_" class="st0" d="M-827.3,445.9h0.8c0,0.2,0.1,0.4,0.3,0.6c0.2,0.1,0.4,0.2,0.7,0.2c0.4,0,0.7-0.1,0.9-0.4
			c0.2-0.3,0.3-0.7,0.3-1.3c0,0,0-0.1,0-0.1c0-0.1,0-0.1,0-0.2c-0.1,0.3-0.3,0.5-0.5,0.6c-0.2,0.1-0.5,0.2-0.8,0.2
			c-0.6,0-1-0.3-1.3-0.8c-0.3-0.5-0.4-1.4-0.4-2.5c0-1,0.2-1.7,0.5-2.2c0.3-0.5,0.8-0.7,1.4-0.7c0.3,0,0.6,0.1,0.8,0.2
			c0.2,0.1,0.4,0.4,0.5,0.6v-0.7h0.8v5.8c0,0.7-0.2,1.3-0.5,1.7c-0.3,0.4-0.8,0.6-1.5,0.6c-0.5,0-0.9-0.1-1.2-0.4
			C-827.1,446.7-827.3,446.4-827.3,445.9L-827.3,445.9z M-826.6,442.4c0,0.8,0.1,1.5,0.3,1.8c0.2,0.4,0.4,0.5,0.8,0.5
			c0.4,0,0.7-0.2,0.9-0.6c0.2-0.4,0.3-1,0.3-1.9c0-0.8-0.1-1.4-0.3-1.8c-0.2-0.4-0.5-0.6-0.9-0.6c-0.4,0-0.6,0.2-0.8,0.6
			C-826.5,440.9-826.6,441.5-826.6,442.4z"/>
		<path id="XMLID_5496_" class="st0" d="M-819.6,445.4v-0.8c-0.1,0.3-0.3,0.5-0.5,0.7c-0.3,0.2-0.6,0.2-0.9,0.2
			c-0.5,0-0.8-0.1-1.1-0.4c-0.2-0.2-0.3-0.6-0.3-1.2v-4.7h0.8v4.7c0,0.2,0.1,0.4,0.2,0.6s0.3,0.2,0.5,0.2c0.4,0,0.7-0.1,0.9-0.4
			c0.2-0.3,0.3-0.6,0.3-1.1v-4h0.8v6.1H-819.6z"/>
		<path id="XMLID_4541_" class="st0" d="M-817.5,445.4v-6.1h0.8v1c0.1-0.4,0.3-0.6,0.5-0.8c0.2-0.2,0.5-0.3,0.8-0.3
			c0.1,0,0.2,0,0.2,0c0,0,0.1,0,0.1,0v0.9c0,0-0.1,0-0.1-0.1c-0.1,0-0.1,0-0.2,0c-0.4,0-0.7,0.1-1,0.4c-0.2,0.3-0.3,0.7-0.3,1.2v3.7
			H-817.5z"/>
		<path id="XMLID_4537_" class="st0" d="M-814.7,442.4c0-1.1,0.2-1.9,0.5-2.4c0.3-0.5,0.8-0.8,1.5-0.8c0.7,0,1.2,0.3,1.5,0.8
			c0.3,0.5,0.5,1.3,0.5,2.4c0,1.1-0.2,1.9-0.5,2.4c-0.3,0.5-0.8,0.8-1.6,0.8c-0.7,0-1.2-0.3-1.6-0.8
			C-814.5,444.3-814.7,443.5-814.7,442.4z M-813.8,442.4c0,0.9,0.1,1.5,0.3,1.9c0.2,0.4,0.5,0.6,0.9,0.6c0.4,0,0.7-0.2,0.9-0.6
			c0.2-0.4,0.3-1,0.3-1.9c0-0.9-0.1-1.5-0.3-1.9c-0.2-0.4-0.5-0.6-0.9-0.6c-0.4,0-0.7,0.2-0.9,0.5S-813.8,441.4-813.8,442.4z"/>
	</g>
	<path id="XMLID_4021_" class="st1" d="M-840.9,354.1h7.8v29.6l9.5-22.8h-8.2l1.6-6.8h17.6l-9.5,22.9h9.2l-1.9,6.9h-18.4h0h-7.8
		V354.1z M-842.7,354.1v29.7h-8.8c-2.6,0-4.5-0.1-5.7-0.3c-1.2-0.2-2.2-0.5-3.1-0.9c-1.8-0.8-3.1-2.2-4.1-4.1
		c-0.9-1.9-1.4-4.3-1.4-7.1c0-2.5,0.4-5.2,1.2-8c0.8-2.9,2-6,3.7-9.3h7.8c-1.8,4-3.1,7.3-3.9,9.9c-0.8,2.6-1.2,4.9-1.2,6.8
		c0,2.2,0.4,3.7,1.3,4.7c0.8,1,2.2,1.5,4.1,1.5h2.6v-23H-842.7z M-866.3,360.9h-7.9c-0.5,0-0.9,0.1-1.2,0.2
		c-0.2,0.2-0.4,0.4-0.4,0.8c0,0.2,0.1,0.4,0.2,0.6c0.1,0.2,0.3,0.5,0.6,0.7l6.6,7.3c1,1.1,1.8,2.2,2.2,3.3c0.5,1.1,0.7,2.1,0.7,3.2
		c0,1.1-0.2,2.1-0.7,3c-0.5,0.9-1.1,1.7-1.9,2.3c-0.7,0.5-1.7,0.9-2.8,1.2c-1.1,0.2-2.8,0.3-5,0.3h-6.9l-2-6.9h8.8
		c0.5,0,0.8-0.1,1.1-0.3c0.2-0.2,0.4-0.5,0.4-0.8c0-0.1-0.1-0.3-0.2-0.5c-0.1-0.2-0.3-0.4-0.4-0.7l-7.2-7.9
		c-0.7-0.8-1.3-1.8-1.7-2.7c-0.4-1-0.6-2-0.6-3c0-0.8,0.1-1.6,0.4-2.3c0.2-0.7,0.6-1.4,1-2c0.7-0.9,1.6-1.6,2.8-2
		c1.1-0.4,2.8-0.6,5.1-0.6h7.3L-866.3,360.9z M-794.8,354.1h4.4l1.6,6.7h-5.5c-2.6,0-4.7,0.5-6.3,1.6c-1.6,1.1-2.7,2.8-3.5,5.2h6.9
		V362h7.3v21.8h-7.3v-9.4h-7.6c0.1,1.6,0.3,3.2,0.8,4.8c0.5,1.6,1.1,3.1,2,4.6l-5.8,4.2c-1.4-2.4-2.5-4.9-3.3-7.4
		c-0.7-2.5-1.1-4.9-1.1-7.5c0-2.8,0.4-5.5,1.3-8c0.9-2.5,2.1-4.6,3.7-6.3c1.5-1.6,3.2-2.8,5.3-3.6
		C-799.9,354.5-797.5,354.1-794.8,354.1z"/>
	<path id="XMLID_4005_" class="st1" d="M-885.4,389.1h7.4v22.1h9.5c-0.1-1.1-0.2-2.2-0.2-3.3c0-2.8,0.4-5.4,1.3-7.9
		c0.9-2.5,2.1-4.5,3.7-6.2c1.5-1.6,3.3-2.8,5.3-3.5c2.1-0.8,4.5-1.2,7.3-1.2h4.4l1.7,6.6h-5.6c-2.7,0-4.8,0.5-6.4,1.6
		c-1.6,1.1-2.8,2.8-3.5,5.1h7v-5.5h7.4v21.4h-7.4v-9.2h-7.7c0.1,1.6,0.3,3.2,0.8,4.7c0.5,1.5,1.1,3,2,4.5l-5.8,4.1
		c-1.2-2-2.2-3.9-2.9-5.9l-1,1.8h-17.2V389.1z M-843.3,396.9h7.2v14.8h5.1c0.7,0,1.2-0.1,1.5-0.4c0.3-0.3,0.5-0.7,0.5-1.2
		c0-1.1-0.6-2.3-1.7-3.4c-1.1-1.2-2.9-2.5-5.2-3.8c2.1-1.4,3.6-2.6,4.5-3.5c0.9-0.9,1.4-1.6,1.4-2.2c0-0.5-0.2-0.8-0.5-1.1
		c-0.3-0.2-0.9-0.3-1.6-0.3h-12.4l1.7-6.6h12.1c2.9,0,5.1,0.5,6.5,1.6c1.5,1.1,2.2,2.7,2.2,4.9c0,1.3-0.3,2.5-0.8,3.6
		c-0.6,1.1-1.5,2.2-2.7,3.3c1.6,1.2,2.7,2.5,3.6,3.9c0.8,1.5,1.2,3,1.2,4.5c0,1.4-0.3,2.6-0.8,3.6c-0.5,1-1.3,1.9-2.3,2.5
		c-0.8,0.5-1.7,0.8-3,1c-1.2,0.2-3.2,0.3-5.8,0.3h-10.6V396.9z"/>
	<path id="XMLID_2491_" class="st1" d="M-813.2,393.2c9,5.9,16.4,4.6,22.9,0c7.1,5,14.3,5.7,21.4,0c1.9,27-7.5,40.2-21.6,47.8
		C-808,432.4-813.8,414.7-813.2,393.2"/>
	<polygon id="XMLID_2489_" class="st2" points="-795.2,404 -788,404 -788,411.6 -779.4,411.6 -779.4,419 -788,419 -788,427.2 
		-795.2,427.2 -795.2,419 -803.3,419 -803.3,411.6 -795.2,411.6 	"/>
</g>
</svg>
